<?xml version="1.0" encoding="utf-8"?>
<!-- Generator: Adobe Illustrator 27.7.0, SVG Export Plug-In . SVG Version: 6.00 Build 0)  -->
<svg version="1.1" xmlns="http://www.w3.org/2000/svg" xmlns:xlink="http://www.w3.org/1999/xlink" x="0px" y="0px"
	 viewBox="0 0 210.7 47.2" style="enable-background:new 0 0 210.7 47.2;" xml:space="preserve">
<style type="text/css">
	.st0{fill:#FFFFFF;}
	.st1{fill:url(#SVGID_1_);}
</style>
<g id="Layer_2">
</g>
<g id="a">
	<g>
		<g>
			<path class="st0" d="M173,22.6c-1.1,0-2-0.3-2.5-0.8c-0.5-0.5-0.7-1.1-0.7-1.9l0-0.1h0.7l0,0.1c0,0.6,0.1,1.1,0.5,1.5
				c0.4,0.5,1.2,0.7,2.1,0.7c0.8,0,2-0.3,2-1.6c0-1.2-1.1-1.4-2.3-1.7l-0.1,0c-1.2-0.2-2.6-0.6-2.6-2.1c0-1.5,1.3-2.1,2.6-2.1
				c1.8,0,2.9,0.9,2.9,2.4l0,0.1h-0.7l0-0.1c0-1.2-0.9-1.8-2.3-1.8c-0.9,0-1.9,0.4-1.9,1.5c0,1.1,1.1,1.3,2.2,1.6l0.2,0
				c1.1,0.2,2.6,0.5,2.6,2.2C175.7,21.9,174.3,22.6,173,22.6z"/>
			<polygon class="st0" points="183.4,22.4 183.4,15.8 180.9,22.4 180.3,22.4 177.7,15.9 177.7,22.4 177.1,22.4 177.1,14.6 
				177.9,14.6 180.6,21.4 183.2,14.6 184.1,14.6 184.1,22.4 			"/>
			<path class="st0" d="M191,22.4l-0.9-2.4h-3.4l-0.9,2.4H185l3-7.8h0.6l3,7.8H191z M189.9,19.3l-1.4-3.9l-1.5,3.9H189.9z"/>
			<path class="st0" d="M197.9,22.4L197.9,22.4c-0.2-0.4-0.2-0.9-0.2-1.4c0-0.3,0-0.5,0-0.8c-0.1-0.6-0.3-1.2-1.7-1.2h-2.5v3.5h-0.7
				v-7.8h3.2c1.5,0,2.4,0.8,2.4,2.1c0,0.9-0.4,1.6-1.1,1.9c0.8,0.3,0.9,1,1,1.6c0,0.3,0,0.5,0,0.8c0,0.5,0,1,0.2,1.2l0.1,0.2H197.9z
				 M196,18.3c0.6,0,1.8-0.2,1.8-1.6c0-1.4-1.4-1.5-1.8-1.5h-2.5v3.1H196z"/>
			<polygon class="st0" points="201.5,22.4 201.5,15.2 198.9,15.2 198.9,14.6 204.8,14.6 204.8,15.2 202.2,15.2 202.2,22.4 			"/>
		</g>
		<g>
			<polygon class="st0" points="183.8,35.2 183.8,31.5 178.5,31.5 178.5,35.2 177.9,35.2 177.9,27.4 178.5,27.4 178.5,30.9 
				183.8,30.9 183.8,27.4 184.4,27.4 184.4,35.2 			"/>
			<path class="st0" d="M191.4,35.2l-0.9-2.4H187l-0.9,2.4h-0.7l3-7.8h0.6l3,7.8H191.4z M190.2,32.2l-1.4-3.9l-1.5,3.9H190.2z"/>
			<rect x="193.2" y="27.4" class="st0" width="0.7" height="7.8"/>
			<polygon class="st0" points="201.9,35.2 196.5,28.5 196.5,35.2 195.8,35.2 195.8,27.4 196.5,27.4 201.9,34.1 201.9,27.4 
				202.6,27.4 202.6,35.2 			"/>
			<path class="st0" d="M173.3,35.4c-2.2,0-3.6-1.6-3.6-4.1c0-2.4,1.5-4.1,3.6-4.1c2.6,0,3,2.2,3.1,2.5l0,0.1h-0.7l0-0.1
				c-0.2-1.1-1.2-1.9-2.4-1.9c-1.7,0-3,1.4-3,3.5c0,2,1.2,3.5,3,3.5c1.2,0,2.2-0.9,2.5-2.2l0-0.1h0.7l0,0.1
				C176.1,34.2,174.8,35.4,173.3,35.4z"/>
		</g>
	</g>
	<g>
		<path class="st0" d="M80.5,16.9c0.4-0.8,1.3-1.2,2.2-1.2h2.8l-9.1,15.8c-0.9,1.7-1.9,2.4-3.7,2.4c-1.7,0-2.7-0.7-3.7-2.4
			l-9.1-15.8h2.8c0.9,0,1.7,0.5,2.2,1.2l7.3,12.7c0.1,0.2,0.3,0.3,0.5,0.3c0.2,0,0.4-0.1,0.5-0.3L80.5,16.9"/>
		<path class="st0" d="M133.6,16.9c0.4-0.8,1.3-1.2,2.2-1.2h2.8l-9.1,15.8c-0.9,1.7-1.9,2.4-3.7,2.4c-1.7,0-2.7-0.7-3.7-2.4
			L113,15.6h2.8c0.9,0,1.7,0.5,2.2,1.2l7.3,12.7c0.1,0.2,0.3,0.3,0.5,0.3c0.2,0,0.4-0.1,0.5-0.3L133.6,16.9"/>
		<path class="st0" d="M95.3,25.7c-0.9,0-1.7-0.5-2.2-1.2L88,15.6h2.8c0.9,0,1.7,0.5,2.2,1.2l5.1,8.8H95.3"/>
		<path class="st0" d="M105.8,16.9c0.5-0.8,1.3-1.2,2.2-1.2h2.8L97.4,38.7c-0.4,0.8-1.3,1.2-2.2,1.2h-2.8L105.8,16.9"/>
		<path class="st0" d="M158.7,20.9c-0.5-1.2-1.2-2.2-2.2-3.1c-0.2-0.2-0.3-0.3-0.5-0.5c-0.8-0.7-1.7-1.2-2.6-1.6
			c-1.2-0.5-2.5-0.8-3.9-0.8s-2.6,0.3-3.9,0.8c-1.1,0.5-2.1,1.1-3,2l-0.1,0.1l-0.1,0.1c-0.9,0.9-1.6,1.9-2.2,3.1
			c-0.5,1.2-0.8,2.5-0.8,3.8c0,1.3,0.3,2.6,0.8,3.8c0.5,1.2,1.2,2.2,2.2,3.1c0.9,0.9,2,1.6,3.2,2.1c1.2,0.5,2.5,0.8,3.9,0.8
			c1.3,0,2.6-0.3,3.9-0.8c1.2-0.5,2.2-1.2,3.2-2.1c0.9-0.9,1.7-2,2.2-3.1c0.5-1.2,0.8-2.5,0.8-3.8C159.5,23.4,159.2,22.1,158.7,20.9
			 M155.5,27.2c-0.3,0.8-0.8,1.4-1.4,2c-1,0.9-2.1,1.4-2.1,1.4l0,0c-0.8,0.3-1.7,0.5-2.5,0.5s-1.7-0.2-2.5-0.5
			c-0.8-0.3-1.5-0.8-2.1-1.4c-0.6-0.6-1.1-1.3-1.4-2c-0.3-0.8-0.5-1.6-0.5-2.5s0.2-1.7,0.5-2.5c0.3-0.8,0.8-1.4,1.4-2l0.1-0.1l0,0
			c0.6-0.5,1.2-0.9,1.9-1.2c0.8-0.3,1.7-0.5,2.5-0.5s1.7,0.2,2.5,0.5c0.6,0.2,1.1,0.5,1.5,0.9c0.2,0.2,0.4,0.3,0.5,0.5
			c0.6,0.6,1.1,1.3,1.4,2c0.3,0.8,0.5,1.6,0.5,2.5C156.1,25.6,155.9,26.4,155.5,27.2"/>
	</g>
	<linearGradient id="SVGID_1_" gradientUnits="userSpaceOnUse" x1="12.54" y1="29.7133" x2="41.6437" y2="2.1112">
		<stop  offset="0" style="stop-color:#8C43E8"/>
		<stop  offset="0.956" style="stop-color:#616DFF"/>
	</linearGradient>
	<path class="st1" d="M28.1,6.7l-6.4,6.4l-1.3-1.3c-1-1-2.4-1.6-3.8-1.6s-2.8,0.6-3.8,1.6c-1,1-1.6,2.4-1.6,3.8
		c0,1.4,0.6,2.8,1.6,3.8l8.9,8.9l14-14c0.3-0.3,0.8-0.5,1.3-0.5s0.9,0.2,1.3,0.5c0.3,0.3,0.5,0.8,0.5,1.3s-0.2,0.9-0.5,1.3
		L21.7,33.6L10.2,22.1c-3.5-3.5-3.5-9.3,0-12.8c2.7-2.7,6.8-3.4,10.3-1.8c0.1,0.1,0.5,0.3,1.1,0.7l2.6-2.6c-1.1-0.8-1.9-1.3-2-1.3
		l-0.1,0C17.3,1.9,11.5,2.9,7.7,6.7C5.3,9.1,4,12.3,4,15.7s1.3,6.6,3.7,8.9l14,14l19.1-19.1c1-1,1.6-2.4,1.6-3.8s-0.6-2.8-1.6-3.8
		c-1-1-2.4-1.6-3.8-1.6s-2.8,0.6-3.8,1.6L21.7,23.3l-6.4-6.4c-0.3-0.3-0.5-0.8-0.5-1.3c0-0.5,0.2-0.9,0.5-1.3
		c0.3-0.3,0.8-0.5,1.3-0.5s0.9,0.2,1.3,0.5l3.8,3.8l8.9-8.9c3.5-3.5,9.3-3.5,12.8,0c3.5,3.5,3.5,9.3,0,12.8L24.3,41.2l2.5,2.5
		L46,24.6c2.4-2.4,3.7-5.6,3.7-8.9S48.4,9.1,46,6.7C43.6,4.3,40.4,3,37,3S30.5,4.3,28.1,6.7"/>
</g>
</svg>
